<svg xmlns="http://www.w3.org/2000/svg" viewBox="0 0 98.36 90"><defs><style>.cls-1{fill:#3c3c3b;}</style></defs><g id="Camada_2" data-name="Camada 2"><g id="Camada_1-2" data-name="Camada 1"><path class="cls-1" d="M97.46,16.47a4,4,0,0,0-3.21-1.56H24.34L22.06,3.31A4.13,4.13,0,0,0,17.92,0H4.14a4.15,4.15,0,0,0,0,8.29H14.4L25.48,63.8a4.12,4.12,0,0,0,4.14,3.31h55a4.09,4.09,0,0,0,4-3.31l9.53-43.92A3.49,3.49,0,0,0,97.46,16.47ZM81.3,58.83H33L26,23.3H89.07Z"/><circle class="cls-1" cx="39.87" cy="81.61" r="8.39"/><circle class="cls-1" cx="73.95" cy="81.61" r="8.39"/></g></g></svg>