<svg xmlns="http://www.w3.org/2000/svg" viewBox="0 0 90.32 92"><defs><style>.cls-1{fill:#fff;}.cls-2{fill:#3c3c3b;}</style></defs><g id="Camada_2" data-name="Camada 2"><g id="Camada_1-2" data-name="Camada 1"><path class="cls-1" d="M61.6,36.8A24.8,24.8,0,1,0,36.8,61.6,24.86,24.86,0,0,0,61.6,36.8Z"/><path class="cls-2" d="M66,59.1A36.75,36.75,0,1,0,36.8,73.6a36.27,36.27,0,0,0,20.5-6.3L80.2,90.2A5.92,5.92,0,0,0,84.4,92a5.76,5.76,0,0,0,4.2-1.8,6.1,6.1,0,0,0,0-8.5ZM12,36.8A24.8,24.8,0,1,1,36.8,61.6,24.86,24.86,0,0,1,12,36.8Z"/></g></g></svg>