<?xml version="1.0" encoding="utf-8"?>
<!-- Generator: Adobe Illustrator 24.2.3, SVG Export Plug-In . SVG Version: 6.00 Build 0)  -->
<svg version="1.1" id="Camada_1" xmlns="http://www.w3.org/2000/svg" xmlns:xlink="http://www.w3.org/1999/xlink" x="0px" y="0px"
	 viewBox="0 0 90.3 92" style="enable-background:new 0 0 90.3 92;" xml:space="preserve">
<style type="text/css">
	.st0{opacity:0.2;}
	.st1{fill:#FFFFFF;}
	.st2{fill:#3C3C3B;}
</style>
<g id="Camada_2_1_" class="st0">
	<g id="Camada_1-2">
		<path class="st1" d="M61.6,36.8C61.6,23.1,50.5,12,36.8,12C23.1,12,12,23.1,12,36.8c0,13.7,11.1,24.8,24.8,24.8l0,0
			C50.5,61.6,61.6,50.5,61.6,36.8z"/>
		<path class="st2" d="M66,59.1c12.3-16.2,9.2-39.2-7-51.5s-39.2-9.2-51.5,7s-9.2,39.2,7,51.5c6.4,4.9,14.2,7.5,22.3,7.5
			c7.3,0,14.5-2.2,20.5-6.3l22.9,22.9c1.1,1.1,2.6,1.8,4.2,1.8c1.6,0,3.1-0.6,4.2-1.8c2.3-2.4,2.3-6.1,0-8.5L66,59.1z M12,36.8
			C12,23.1,23.1,12,36.8,12s24.8,11.1,24.8,24.8S50.5,61.6,36.8,61.6l0,0C23.1,61.6,12,50.5,12,36.8z"/>
	</g>
</g>
</svg>
