<svg xmlns="http://www.w3.org/2000/svg" viewBox="0 0 95.5 91"><defs><style>.cls-1{fill:#3c3c3b;stroke:#3c3c3b;stroke-miterlimit:10;}</style></defs><g id="Camada_2" data-name="Camada 2"><g id="Camada_1-2" data-name="Camada 1"><path class="cls-1" d="M47.61,51A25.26,25.26,0,1,0,22.36,25.76,25.32,25.32,0,0,0,47.61,51Zm0-43.9A18.6,18.6,0,1,1,29,25.66,18.66,18.66,0,0,1,47.61,7.11Z"/><path class="cls-1" d="M3.9,90.5H91.69A3.29,3.29,0,0,0,95,87.19,31.84,31.84,0,0,0,63.22,55.42H32.28A31.84,31.84,0,0,0,.5,87.19,3.37,3.37,0,0,0,3.9,90.5ZM32.28,62.12h31A24.92,24.92,0,0,1,88.11,83.89H7.48A25,25,0,0,1,32.28,62.12Z"/></g></g></svg>