<svg xmlns="http://www.w3.org/2000/svg" viewBox="0 0 104.99 90"><defs><style>.cls-1{fill:#ee766c;}</style></defs><g id="Camada_2" data-name="Camada 2"><g id="Camada_1-2" data-name="Camada 1"><path class="cls-1" d="M86.25,90H63.74A3.75,3.75,0,0,1,60,86.25V67.5H45V86.25A3.75,3.75,0,0,1,41.24,90H18.74A3.75,3.75,0,0,1,15,86.25V45H3.74a3.76,3.76,0,0,1-2.29-6.72L50.21.78a3.74,3.74,0,0,1,4.57,0l48.76,37.5A3.76,3.76,0,0,1,101.25,45H90V86.25A3.75,3.75,0,0,1,86.25,90ZM67.5,82.5h15V41.25a3.75,3.75,0,0,1,3.75-3.76h4l-37.73-29-37.73,29h4a3.75,3.75,0,0,1,3.75,3.76V82.5h15V63.75A3.75,3.75,0,0,1,41.24,60h22.5a3.75,3.75,0,0,1,3.76,3.75Z"/></g></g></svg>