<svg xmlns="http://www.w3.org/2000/svg" viewBox="0 0 776.03 262.4"><defs><style>.cls-1{fill:#3c3c3b;}</style></defs><g id="Camada_2" data-name="Camada 2"><g id="Camada_1-2" data-name="Camada 1"><path class="cls-1" d="M66.18,4.3c2.1-1.58,5.25-1.32,8.93,0,5,1.83,6.82,4.46,6.3,9.45-1.58,8.67-5,16.8-8.93,24.68-7.88,15.76-13.65,32-20,48.32C45.44,104.87,38.61,123,32,141.37A291.21,291.21,0,0,0,20.23,180.5a37.08,37.08,0,0,0-.53,10.76c3.41,6,16.81-1,27.31-12.87,2.89-3.15,6-8.4,9.72-14.18,5-7.87,11-16,13.65-21a7.47,7.47,0,0,1,11-1.58c1.31.79,1.31,1.84,1,3.15-1.57,2.89-2.89,5.26-4.47,7.62-2.62,4.2-6.3,10.24-10.5,16.28-6.82,9.71-13.13,19.95-19.17,25.47-6.82,6.3-21.79,12.34-32,9.72C5.52,201.5-.25,194.41,0,181.55a129.9,129.9,0,0,1,4.72-24.16c6.83-24.16,15.5-47.53,24.16-70.9,4.47-12.08,8.41-24.16,13.66-36,5.51-12.6,11.29-24.94,17.59-37"/><path class="cls-1" d="M121.84,187.85a33.12,33.12,0,0,1-1-11.29c-2.36-.79-2.89,1.05-3.68,2.1-4.72,5-9.45,10-15.49,13.91C88.49,201,73.79,195.2,68.54,180.23c-4.73-13.39-3.42-26.26,2.62-38.86,7.61-16.55,17.33-31.25,33.61-40.18,7.88-4.2,16.54-7.35,26-5.25,8.66,2.1,11.55,3.41,17.33,11,3.15-3.94,5.52-7.62,8.14-11,3.94-5,8.14-6,12.87-3.94,3.94,1.84,5.51,3.94,4.2,8.4-2.1,6.83-3.94,13.92-6.57,20.49-6.56,16-11.81,32.56-17.85,48.84a79.06,79.06,0,0,0-3.68,16c-.53,2.36-1.57,5.51.26,7.09,2.63,1.57,5.25-1.32,7.36-2.89a56,56,0,0,0,12.08-11.56c5.51-7.61,18.64-26.78,23.36-35.18a7.47,7.47,0,0,1,11-1.58c1.32.79,1.32,1.84,1,3.15-1.57,2.89-2.88,5.26-4.46,7.62-6.56,10.5-21,32.82-29.67,41.75a34.39,34.39,0,0,1-22.85,10.5C133.66,205.18,125,201,121.84,187.85Zm-15.75-13.39a208.88,208.88,0,0,0,24.41-32.3,61.15,61.15,0,0,0,8.41-22.85,18.38,18.38,0,0,0-1.31-10.5c-1.58-3.42-2.89-3.94-6.31-2.37a14.06,14.06,0,0,0-3.41,1.58c-11.55,9.19-22.32,19.17-29.41,32.56-5.78,10.5-10,21.53-10,33.88.26,1.83.26,3.41.52,5,.53,4.21,1.58,4.73,5.26,3.16A38.13,38.13,0,0,0,106.09,174.46Z"/><path class="cls-1" d="M203.23,205.18a40.84,40.84,0,0,1,12.35-32.56,26.56,26.56,0,0,1,14.7-7.62c4.2-1.05,6-3.15,7.09-6.83,2.36-8.66,6.82-30.46,8.67-38.86,1.05-3.94.78-8.14.26-12.08s-2.37-5-6-3.41a24,24,0,0,0-7.09,4.2c-8.14,6.56-14.45,14.18-17.86,24.42-6.3,18.64-12.86,37.29-18.38,56.19-2.36,7.36-5.78,9.2-13.39,7.88-6-.78-8.14-3.67-7.62-10a144.07,144.07,0,0,1,3.94-18.39c7.62-26.52,16.55-52.78,24.95-79.3,4.2-14.18,8.4-28.36,14.18-42.28,6-14.44,12.34-28.88,21.53-41.75,3.94-5.51,7.09-6,12.87-2.89,3.94,2.37,5.25,4.73,3.94,9.19A97.68,97.68,0,0,1,252.6,25L230.54,87c-1.31,3.68-2.1,7.35-3.15,11.29,2.1.79,3.15-.52,4.2-1,15.5-8.93,34.14,3.68,35.72,20,1,9.72-1.58,32.56-4.73,42-.79,2.88,3.41,3.67,7.35,2.62a23.71,23.71,0,0,0,8.4-4.46,41,41,0,0,0,11-14.18,7.47,7.47,0,0,1,11-1.58c1.31.79,1.31,1.84,1.05,3.15-1.57,2.89-2.89,5.26-4.46,7.62-2.63,4.46-7.09,8.66-12.87,12.08a49.69,49.69,0,0,1-12.6,5.51c-7.62.79-14.71,5.52-17.07,12.34a72.71,72.71,0,0,1-12.87,22.32c-6.56,7.36-14.44,12.87-24.68,13.13C208,218.05,203.5,214.11,203.23,205.18Zm27.84-30.72c-12.08,5.25-18.65,19.43-14.45,30.46C222.4,194.94,227.39,185.48,231.07,174.46Z"/><path class="cls-1" d="M284.36,178.39a52.83,52.83,0,0,1,1.84-27.83,109.44,109.44,0,0,1,22.85-40.18c6-7.09,13.91-11.29,22.32-15,8.14-3.42,16-1.84,23.63,2.1,6.83,3.67,9.72,10,8.93,17.85-1.31,11.82-7.88,20.75-16,28.36-11,10-22.84,18.65-37.29,22.85a4.44,4.44,0,0,0-3.67,3.67c-.27,3.94-1.32,7.88-.8,11.82.8,8.4,5.78,13.39,14.19,13.66,8.92.26,17.85-1.32,33.61-17.34,2.36-3.15,6-8.4,9.71-14.18,5-7.87,11-16,13.66-21a7.47,7.47,0,0,1,11-1.58c1.31.79,1.31,1.84,1,3.15-1.58,2.89-2.89,5.26-4.47,7.62-2.62,4.2-6.3,10.24-10.5,16.28-6.83,9.71-12.08,16.8-17.07,22.32a47.77,47.77,0,0,1-37.29,16C306.15,206.75,287.51,194.94,284.36,178.39ZM335.3,139a65.53,65.53,0,0,0,13.4-14.71,24.62,24.62,0,0,0,4.46-14.18c-.26-4.46-2.36-5.51-6.3-2.89a76.9,76.9,0,0,0-14.18,12.08,126.64,126.64,0,0,0-15.23,22.06c-2.1,3.94-4.73,7.61-5.78,13.13A99.39,99.39,0,0,0,335.3,139Z"/><path class="cls-1" d="M474.73,31.34c-.26,3.68-1.84,4.73-5.52,3.42a8.42,8.42,0,0,1-5.77-6c-1.58-5.25-2.63-5.52-7.62-3.15a22.34,22.34,0,0,0-4.2,2.62c-6.83,6.57-11.29,14.18-15.23,22.58,0,.27-.79,1.84-1.57,4.21H455c2.88,0,5.77.26,8.66.52,4.47.53,5.78,2.89,5.51,7.62-.26,4.46-1,5.25-5.77,5.25-7.62.26-21.53,0-34.14,0-2.62,6.56-5,12.34-5,12.87l-14.18,40.43c-7.61,21.27-15.49,42-23.37,63.29-3.67,10-6.57,20.22-10.5,30.2s-7.35,20.48-10.77,30.72c-1.31,4.47-3.68,8.4-6,12.34-2.89,5-11.81,5.52-16,1.58a5.06,5.06,0,0,1-1.31-5.25,81.6,81.6,0,0,1,2.36-11c12.08-38.87,24.69-77.47,38.61-115.81,6-16,11.55-32.56,17.85-48.58,0-.26,2.1-5.25,4.47-10.76a217.18,217.18,0,0,1-22.59,0c-4.73-.26-5.77-2.1-5.77-5.52-.27-4.72,1-6.56,5.77-7.09a48.54,48.54,0,0,1,8.67-.52c6,0,12.6-.26,19.43-.26.53-1.32,1.05-2.1,1.05-2.37,5.25-11,11.56-21.53,20.75-29.67C444,13,455.3,11.12,466.33,17.69,471.31,20.58,475.25,24.78,474.73,31.34Z"/><path class="cls-1" d="M430.08,196.78c-4.46-4.47-8.66-9.19-10.24-15.76-1-4.73-.26-9.45,0-14.18.27-6.83,2.36-13.39,5-19.43,2.63-5.52,5.78-7.09,11.82-5.25,1.31.26,2.36,1.31,4.2,1.05.53-3.94,1-8.14,1.84-12.35,2.1-10.5,6-20.21,13.92-28.09C472.1,87,499.67,96.2,506.5,114.85c2.63,7.35.78,14.7-1.05,21.79a156.34,156.34,0,0,1-16,38.08c-.79,1.57-2.1,2.89-1.84,5,3.94,1,7.62-.53,11-2.1a78.58,78.58,0,0,0,33.61-30.46c2.89-4.21,5.52-8.93,8.14-13.4,2.1-3.15,7.36-3.41,9.72-.52a3.18,3.18,0,0,1,.78,3.41,9.41,9.41,0,0,1-1,2.37c-9.46,20-19.43,30.72-34.67,41.49-9.19,6.56-19.43,10-30.72,8.13a7.45,7.45,0,0,0-7.09,2.89c-6.56,7.09-14.44,11.82-24.42,12.87C444,205.44,436.39,203.08,430.08,196.78Zm38.08-12.61C456.61,178.92,448.47,170.78,444,159c-2.1,7.36-1.84,14.44-1.84,21.54-.26,4.46,2.1,8.13,3.94,11.81.79,1.84,2.89,2.36,4.73,2.1C457.39,192.84,463.17,190.21,468.16,184.17Zm9.45-10.5c10-14.18,15.76-30.2,18.65-47.53.79-3.68.26-7.35-.53-11-1.57-8.67-11.55-13.13-19.69-8.67a23.1,23.1,0,0,0-11,10.77c-3.94,8.67-7.09,17.59-6.57,27.31A40.65,40.65,0,0,0,460,158.17c2.1,6.57,4.73,12.87,11,16.81C474.46,177.34,475.51,177.08,477.61,173.67Z"/><path class="cls-1" d="M539.57,196.78c-4.46-4.47-8.66-9.19-10.24-15.76-1.05-4.73-.26-9.45,0-14.18.27-6.83,2.36-13.39,5-19.43,2.63-5.52,5.78-7.09,11.82-5.25,1.31.26,2.36,1.31,4.2,1.05.53-3.94,1-8.14,1.84-12.35,2.1-10.5,6-20.21,13.92-28.09C581.59,87,609.16,96.2,616,114.85c2.62,7.35.78,14.7-1,21.79a156.34,156.34,0,0,1-16,38.08c-.79,1.57-2.1,2.89-1.84,5,3.94,1,7.62-.53,11-2.1a78.58,78.58,0,0,0,33.61-30.46c2.89-4.21,5.52-8.93,8.14-13.4,2.1-3.15,7.36-3.41,9.72-.52a3.18,3.18,0,0,1,.78,3.41,9.41,9.41,0,0,1-1,2.37c-9.46,20-19.43,30.72-34.67,41.49-9.19,6.56-19.43,10-30.72,8.13a7.45,7.45,0,0,0-7.09,2.89c-6.56,7.09-14.44,11.82-24.42,12.87C553.49,205.44,545.87,203.08,539.57,196.78Zm38.08-12.61C566.1,178.92,558,170.78,553.49,159c-2.1,7.36-1.84,14.44-1.84,21.54-.26,4.46,2.1,8.13,3.94,11.81.79,1.84,2.89,2.36,4.73,2.1C566.88,192.84,572.66,190.21,577.65,184.17Zm9.45-10.5c10-14.18,15.76-30.2,18.65-47.53.78-3.68.26-7.35-.53-11-1.57-8.67-11.55-13.13-19.69-8.67a23.1,23.1,0,0,0-11,10.77c-3.94,8.67-7.09,17.59-6.57,27.31a40.65,40.65,0,0,0,1.58,13.65c2.1,6.57,4.73,12.87,11,16.81C584,177.34,585,177.08,587.1,173.67Z"/><path class="cls-1" d="M692.13,205.44c-1-8.66.26-17.33,1.84-25.73.26-2.1,1-3.94.26-6.57-2.1.26-3.15,1.84-3.94,3.15-5,7.09-11.56,12.08-18.38,17.07-6.57,4.73-13.65,5.78-21.27,1.84S638.82,185,638.3,176.29a87.61,87.61,0,0,1,6.82-37.55c5.52-14.18,14.45-25.73,25.48-36.23,8.66-8.41,19.69-10.77,31.25-11,4.46-.27,8.92,2.1,12.34,5.25,1,1,1.57,2.62,3.94,2.62,2.62-6.56,5.25-13.65,7.87-20.48,8.4-22.84,16.55-45.43,26.79-67.22A73.11,73.11,0,0,1,757.25,4C759.87.09,762.5-.69,767,.88c5,1.84,7.35,5,7.09,9.19-.53,6.83-2.63,13.4-5,19.43-7.09,18.65-14.44,37.29-21,55.94-8.93,25.21-19.7,49.63-27.31,75.1-4.47,14.7-8.93,29.15-10.24,44.64-.26,2.63-1.31,6.3,1,7.61,2.63,1.58,4.72-1.83,6.57-3.41,3.15-3.15,17.06-18.64,32.29-43.59,4.73-7.88,10.77-17.59,13.39-22.58a7.48,7.48,0,0,1,11-1.58c1.31.79,1.31,1.84,1,3.15-1.57,2.89-2.88,5.26-4.46,7.62-2.62,4.2-6.3,11.55-10.24,17.85-17.07,28.1-27.05,37-33.35,43.86-5.78,6.3-11.82,10.76-21,8.14C698.69,219.88,693.18,213.84,692.13,205.44Zm-25-24.42c8.41-5.51,15-13.13,21.27-21,11-13.92,20-28.62,20.75-46.74a23.61,23.61,0,0,0-1.32-10.5c-.78-2.37-2.36-3.42-5-2.1-5.77,2.89-11.29,6-15.22,11.55-5.52,7.88-11,15.76-15.24,24.42-5.77,12.34-10.5,25.21-11,39.13,0,2.62-1.57,5.25.53,8.14C664,183.38,665.61,182.07,667.18,181Z"/></g></g></svg>